<?xml version="1.0" standalone="no"?><!DOCTYPE svg PUBLIC "-//W3C//DTD SVG 1.1//EN" "http://www.w3.org/Graphics/SVG/1.1/DTD/svg11.dtd"><svg t="1737894277562" class="icon" viewBox="0 0 1024 1024" version="1.1" xmlns="http://www.w3.org/2000/svg" p-id="5769" xmlns:xlink="http://www.w3.org/1999/xlink" width="200" height="200"><path d="M0 512c0 182.857143 98.742857 351.085714 256 442.514286s354.742857 91.428571 512 0S1024 694.857143 1024 512s-98.742857-351.085714-256-442.514286-354.742857-91.428571-512 0S0 329.142857 0 512z" fill="#FFFFFF" p-id="5770"></path><path d="M259.657143 446.171429l-146.285714-252.342858C204.8 76.8 351.085714 0 512 0c186.514286 0 351.085714 102.4 438.857143 248.685714H512c-120.685714 3.657143-223.085714 84.114286-252.342857 197.485715z" fill="#DD4E41" p-id="5771"></path><path d="M694.857143 325.485714h292.571428c21.942857 58.514286 36.571429 120.685714 36.571429 186.514286 0 281.6-226.742857 508.342857-504.685714 512l208.457143-362.057143c29.257143-40.228571 47.542857-95.085714 47.542857-149.942857 0-73.142857-32.914286-138.971429-80.457143-186.514286z" fill="#FFCD41" p-id="5772"></path><path d="M325.485714 512c0-102.4 84.114286-186.514286 186.514286-186.514286s186.514286 84.114286 186.514286 186.514286-84.114286 186.514286-186.514286 186.514286-186.514286-84.114286-186.514286-186.514286z" fill="#4C8BF5" p-id="5773"></path><path d="M581.485714 764.342857l-146.285714 256C190.171429 983.771429 0 768 0 512c0-91.428571 25.6-175.542857 65.828571-248.685714L274.285714 621.714286c43.885714 87.771429 131.657143 149.942857 237.714286 149.942857 25.6 3.657143 47.542857 0 69.485714-7.314286z" fill="#1DA362" p-id="5774"></path></svg>