<?xml version="1.0" standalone="no"?><!DOCTYPE svg PUBLIC "-//W3C//DTD SVG 1.1//EN" "http://www.w3.org/Graphics/SVG/1.1/DTD/svg11.dtd"><svg t="1737903061934" class="icon" viewBox="0 0 1024 1024" version="1.1" xmlns="http://www.w3.org/2000/svg" p-id="3705" xmlns:xlink="http://www.w3.org/1999/xlink" width="200" height="200"><path d="M958.344046 134.582857c-33.28-16.164571-68.388571-23.844571-104.448-27.648-7.899429-0.877714-16.091429-0.146286-26.550857-0.146286C953.516617 211.236571 1021.320046 343.04 1024.099474 504.393143c2.267429 136.704-44.836571 256.292571-138.020571 357.229714-177.444571 192.219429-497.810286 229.083429-722.432 27.282286a359.497143 359.497143 0 0 0 1.462857 113.078857 250.368 250.368 0 0 1-41.179429-66.048 413.915429 413.915429 0 0 1-29.622857-115.712 55.296 55.296 0 0 0-8.484571-23.405714A511.122286 511.122286 0 0 1 5.219474 586.605714a501.028571 501.028571 0 0 1 1.901715-156.306285C33.818331 273.92 115.884617 155.062857 250.394331 72.265143 319.73376 29.622857 396.02176 6.729143 477.576046 1.243429a512.950857 512.950857 0 0 1 252.708571 46.811428 56.100571 56.100571 0 0 0 22.528 4.608 383.853714 383.853714 0 0 1 150.674286 31.232c23.990857 10.24 41.691429 27.940571 54.857143 50.614857z m-777.508572 646.875429c-3.364571 17.481143-6.948571 32.914286-9.142857 48.493714-0.731429 4.900571 0.731429 11.995429 4.096 15.286857a460.8 460.8 0 0 0 220.16 123.904 466.432 466.432 0 0 0 230.180572-1.755428 467.382857 467.382857 0 0 0 248.539428-159.451429c40.96-49.810286 70.290286-105.910857 88.283429-168.082286a474.624 474.624 0 0 0 18.358857-134.582857 454.290286 454.290286 0 0 0-21.650286-136.045714c-33.645714-105.618286-96.768-188.781714-188.123428-250.88-4.973714-3.291429-13.238857-3.876571-19.529143-2.852572-47.908571 7.68-89.088 31.597714-130.706286 54.637715-44.324571 24.502857-83.382857 56.027429-122.587429 87.552a31.963429 31.963429 0 0 1-15.140571 7.753143c-68.022857 6.948571-122.002286 38.180571-161.938286 93.110857-10.971429 14.994286-18.651429 32.256-28.16 49.078857h427.666286C686.545189 324.754286 627.665189 277.211429 537.406903 265.142857l7.899428-5.924571c25.746286-18.944 50.834286-38.765714 77.458286-56.466286 26.843429-17.846857 55.076571-33.645714 82.944-50.029714 6.436571-3.803429 13.165714-5.485714 20.845714-0.877715a374.784 374.784 0 0 1 153.453715 172.397715c24.429714 54.125714 37.156571 111.030857 41.252571 169.910857 1.682286 23.405714 0.292571 47.104 0.292572 73.581714h-634.88c3.876571 42.057143 18.139429 76.946286 43.373714 106.642286 46.372571 54.857143 108.763429 74.971429 177.956571 75.702857 71.826286 0.731429 134.656-24.868571 188.635429-71.972571 5.12-4.534857 8.557714-4.608 14.262857-1.901715 34.669714 16.530286 69.632 32.694857 104.448 49.005715l53.101714 25.161142c-2.413714 4.315429-4.022857 7.753143-6.217143 10.825143-50.249143 69.485714-115.2 119.369143-197.997714 143.067429a520.777143 520.777143 0 0 1-252.123428 10.313143c-79.798857-16.457143-150.162286-50.541714-208.164572-108.544-7.314286-7.314286-14.262857-15.213714-23.04-24.576z m-87.771428-49.371429c0.877714-5.558857 1.170286-8.557714 1.755428-11.483428 6.144-29.622857 8.118857-60.928 19.309715-88.502858 36.790857-90.550857 92.672-169.837714 154.331428-245.174857l36.571429-44.617143c-30.72 19.529143-59.611429 40.96-82.870857 68.754286-22.966857 27.501714-46.226286 54.857143-67.072 84.041143-20.918857 29.257143-38.912 60.489143-58.221715 90.843429-0.658286-3.364571-1.536-7.753143-2.194285-12.141715A440.685714 440.685714 0 0 1 102.060617 402.285714c43.008-176.420571 202.459429-305.371429 384.658286-310.345143 16.237714-0.438857 32.914286 0.804571 48.713143-2.194285 30.573714-5.924571 60.635429-14.409143 90.916571-21.577143 8.923429-2.194286 17.92-3.510857 29.403429-5.632C492.058331 5.485714 277.164617 47.689143 142.435474 213.065143 4.85376 382.025143 16.11776 599.405714 93.064046 732.16z" fill="#37D16C" p-id="3706"></path></svg>