<?xml version="1.0" standalone="no"?><!DOCTYPE svg PUBLIC "-//W3C//DTD SVG 1.1//EN" "http://www.w3.org/Graphics/SVG/1.1/DTD/svg11.dtd"><svg t="1527418274929" class="icon" style="" viewBox="0 0 1024 1024" version="1.1" xmlns="http://www.w3.org/2000/svg" p-id="699" xmlns:xlink="http://www.w3.org/1999/xlink" width="18" height="18"><defs><style type="text/css"></style></defs><path d="M740.24923257 747.53447286c-5.99331738-17.97854751 11.98523015-35.95709503 29.96377769-35.95709505 17.97854751-5.99191279 35.95709503 11.98663471 35.95709502 29.96518226l29.96377766 167.79884043c5.99331738 35.95709503-17.97854751 71.91419006-53.93564254 77.90750743-11.98523015 0-29.96377767 0-41.94900783-5.99331736l-233.7211177-125.84983263-233.7211177 125.84983263c-29.96518224 17.97854751-71.91419006 5.99331738-89.8927376-29.96377768-5.99331738-11.98523015-11.98663471-29.96377767-5.99331735-41.95041239L224.86326741 645.65650513 33.09256209 459.87771261c-23.97186489-23.97046028-29.96377767-65.9208727 0-95.88465038 0-17.97854751 11.98523015-23.97186489 29.96377768-23.97186489l263.68629994-35.95709502L446.59915496 64.34966725c17.97854751-35.95709503 53.93564256-47.94232519 89.89273758-29.96377768 11.98523015 5.99331738 23.97186489 17.97854751 29.96377767 29.96377768L686.31359003 304.06410232 949.99848542 340.02119734c35.95709503 5.99331738 59.92895991 41.95041239 59.9289599 77.90750743 0 11.98523015-11.98663471 29.96377767-17.97854752 35.95709503l-119.85791981 107.87128511c-11.98523015 11.98523015-35.95709503 11.98523015-47.94232521 0-11.98523015-11.98663471-11.98523015-35.95709503 0-47.94372976l113.86460247-107.87128509-263.68629995-35.95709504c-23.97046028-5.99191279-41.94900781-17.97854751-47.94232517-35.95709503l-119.85651526-239.7130305-119.85791982 239.7130305c-11.98523015 17.97854751-29.96377767 35.95709503-47.9423252 35.95709503l-263.68489537 35.95709504L266.81367979 591.72086258c17.97854751 17.97854751 23.97186489 35.95709503 17.97854752 59.92895989L236.84990212 915.33471787l233.72111771-125.84983261c17.97854751-11.98523015 41.94900781-11.98523015 59.92755535 0l233.7211177 125.84983261-23.97046031-167.80024501z" p-id="700" data-spm-anchor-id="a313x.7781069.0.i0" class="selected" fill="#ffffff"></path></svg>